<?xml version="1.0" ?><!DOCTYPE svg  PUBLIC '-//W3C//DTD SVG 1.1//EN'  'http://www.w3.org/Graphics/SVG/1.1/DTD/svg11.dtd'><svg enable-background="new 0 0 128 128" id="Слой_1" version="1.1" viewBox="0 0 128 128" xml:space="preserve" xmlns="http://www.w3.org/2000/svg" xmlns:xlink="http://www.w3.org/1999/xlink"><g><path d="M64,2C29.758,2,2,29.758,2,64c0,14.762,5.159,28.32,13.773,38.967c2.871,3.549,6.126,6.775,9.702,9.614   C36.055,120.982,49.441,122,64,122c14.558,0,44.897-15.033,47.617-18.291C120.597,92.953,126,79.107,126,64   C126,29.758,98.242,2,64,2z" fill="#F5C940"/><path d="M19.832,107.488c-0.307-0.311-0.606-0.63-0.906-0.948C19.226,106.858,19.526,107.176,19.832,107.488z" fill="#836755"/><path d="M25.475,112.582c-0.797-0.633-1.573-1.292-2.338-1.963C23.902,111.29,24.678,111.948,25.475,112.582z" fill="#836755"/><path d="M22.225,109.79c-0.428-0.391-0.852-0.787-1.269-1.19C21.373,109.003,21.797,109.398,22.225,109.79z" fill="#836755"/><polygon fill="#836755" points="17.702,105.222 17.702,105.222 17.702,105.222  "/><path d="M66.704,123.964L66.704,123.964C65.807,123.988,64.906,124,64,124   C64.906,124,65.807,123.988,66.704,123.964z" fill="#836755"/><path d="M69.984,114.761c-0.615-0.531-1.356-1.069-2.199-1.612c-0.934-0.602-1.991-1.209-3.137-1.817   c-2.935-1.557-6.648-2.482-10.169-3.967c-3.521-1.485-6.849-3.529-9.792-4.783l-0.485-0.307c-0.799-0.506-1.184-1.467-0.956-2.385   l2.047-9.133l-1.726,1.616c-1.838,1.721-3.775,3.218-6.152,4.051c-1.014,0.355-2.405,0.391-3.353,0.393   c-0.949-0.002-2.339-0.038-3.353-0.393c-2.377-0.833-4.313-2.33-6.152-4.051l-1.726-1.616l2.047,9.133   c0.228,0.918-0.157,1.878-0.956,2.385l-0.485,0.307c-1.776,0.757-3.719,1.675-5.737,2.64c0,0,0,0,0,0   c0.399,0.448,0.813,0.881,1.224,1.318c0.3,0.318,0.599,0.637,0.906,0.948c0.369,0.376,0.746,0.745,1.124,1.112   c0.417,0.403,0.84,0.799,1.269,1.19c0.303,0.277,0.604,0.557,0.913,0.828c0.765,0.671,47.569,10.717,49.438,9.232   C72.154,117.996,71.391,115.975,69.984,114.761z" fill="#906D52"/><path d="M31.612,116.696c-0.369-0.207-0.728-0.431-1.092-0.648C30.884,116.265,31.244,116.489,31.612,116.696z" fill="#D1BE72"/><path d="M47.652,122.485c-0.153-0.031-0.305-0.066-0.458-0.098C47.347,122.419,47.498,122.454,47.652,122.485z" fill="#D1BE72"/><path d="M40.519,120.604c-0.242-0.08-0.479-0.169-0.719-0.252C40.04,120.435,40.277,120.523,40.519,120.604z" fill="#D1BE72"/><path d="M33.767,117.834c-0.332-0.165-0.657-0.345-0.985-0.517C33.11,117.49,33.435,117.669,33.767,117.834z" fill="#D1BE72"/><path d="M38.223,119.784c-0.271-0.104-0.538-0.218-0.807-0.326C37.685,119.566,37.951,119.68,38.223,119.784z" fill="#D1BE72"/><path d="M35.972,118.863c-0.302-0.132-0.597-0.277-0.896-0.414C35.374,118.586,35.67,118.731,35.972,118.863z" fill="#D1BE72"/><path d="M42.858,121.324c-0.213-0.061-0.422-0.128-0.634-0.191C42.436,121.196,42.645,121.264,42.858,121.324z" fill="#D1BE72"/><path d="M60.231,123.921c-0.018-0.001-0.035-0.001-0.053-0.002C60.196,123.92,60.214,123.92,60.231,123.921z" fill="#D1BE72"/><polygon fill="#D1BE72" points="62.841,123.985 62.841,123.985 62.84,123.985  "/><path d="M57.651,123.787c-0.039-0.003-0.078-0.006-0.117-0.008C57.573,123.781,57.612,123.785,57.651,123.787z" fill="#D1BE72"/><path d="M52.588,123.296c-0.095-0.012-0.189-0.026-0.283-0.039C52.399,123.27,52.493,123.284,52.588,123.296z" fill="#D1BE72"/><path d="M50.104,122.933c-0.124-0.02-0.247-0.043-0.372-0.065C49.856,122.889,49.979,122.912,50.104,122.933z" fill="#D1BE72"/><path d="M55.103,123.58c-0.065-0.006-0.13-0.013-0.195-0.02C54.974,123.566,55.038,123.574,55.103,123.58z" fill="#D1BE72"/><path d="M45.236,121.95c-0.184-0.044-0.365-0.094-0.548-0.14C44.872,121.856,45.053,121.906,45.236,121.95z" fill="#D1BE72"/><path d="M19.675,107.324c-0.219-0.224-0.434-0.453-0.65-0.681C19.241,106.871,19.456,107.099,19.675,107.324z" fill="#D1BE72"/><path d="M25.475,112.582c-0.797-0.633-1.573-1.293-2.338-1.964C23.901,111.291,24.678,111.948,25.475,112.582z" fill="#D1BE72"/><path d="M22.105,109.678c-0.377-0.346-0.752-0.696-1.121-1.051C21.353,108.983,21.729,109.331,22.105,109.678z" fill="#D1BE72"/><polygon fill="#D1BE72" points="17.547,105.04 17.547,105.041 17.547,105.04  "/><path d="M27.463,114.073c-0.673-0.477-1.335-0.973-1.987-1.491C26.127,113.099,26.79,113.596,27.463,114.073z" fill="#D1BE72"/><path d="M29.51,115.443c-0.423-0.268-0.837-0.555-1.253-0.837C28.673,114.888,29.086,115.176,29.51,115.443z" fill="#D1BE72"/><path d="M44.688,102.582l-0.485-0.307c-0.005-0.003-0.009-0.006-0.013-0.01c-0.052,0.085-0.108,0.165-0.161,0.249   c-2.954,5.479-8.941,10.254-9.872,10.256c-0.021,0-0.056-0.014-0.081-0.018c-0.025,0.004-0.06,0.018-0.081,0.018   c-0.931-0.002-6.917-4.777-9.872-10.256c-0.053-0.084-0.108-0.165-0.161-0.249c-0.004,0.003-0.008,0.007-0.013,0.01l-0.485,0.307   c-1.798,0.766-3.822,1.595-5.918,2.459c0,0,0,0,0,0c0.481,0.544,0.979,1.074,1.478,1.602c0.216,0.228,0.431,0.456,0.65,0.681   c0.43,0.441,0.867,0.875,1.31,1.303c0.369,0.355,0.743,0.705,1.121,1.051c0.342,0.315,0.683,0.633,1.032,0.94   c0.765,0.671,1.541,1.33,2.338,1.964c0.652,0.518,1.315,1.014,1.987,1.491c0.261,0.185,0.531,0.354,0.795,0.534   c0.416,0.282,0.829,0.57,1.253,0.837c0.332,0.21,0.674,0.403,1.01,0.604c0.363,0.217,0.723,0.441,1.092,0.648   c0.154,0.087,0.31,0.171,0.466,0.253c0.111,0.059,1.026-0.493,1.971-0.033c1.054,0.514,2.144,2.042,2.191,2.062   c0.389,0.165,0.782,0.322,1.175,0.479c0.269,0.108,0.536,0.222,0.807,0.326c0.521,0.199,1.049,0.383,1.577,0.567   c0.24,0.083,0.478,0.172,0.719,0.252c0.563,0.187,1.133,0.36,1.705,0.53c0.212,0.063,0.421,0.13,0.634,0.191   c0.605,0.173,1.217,0.332,1.831,0.486c0.183,0.046,0.364,0.096,0.548,0.14c0.513,0.124,1.03,0.24,1.549,0.351   c0.136,0.029,16.75-8.562,17.86-10.966C58.774,108.22,50.576,105.09,44.688,102.582z" fill="#45B09A"/><path d="M46.785,122.301c0.136,0.029,16.75-8.562,17.86-10.966c-1.591-0.844-3.359-1.688-5.199-2.522l-2.33,0.976   c-0.075,0.016-0.17,0.036-0.298,0.065l-0.354,0.089l-0.555,0.161l-0.128,0.04l-0.363,0.12l-0.15,0.053l-0.239,0.085l-0.601,0.237   l-0.62,0.275l-0.675,0.335c0,0-0.59,0.326-0.687,0.383c-0.077,0.045-0.602,0.375-0.7,0.44c-0.091,0.06-0.39,0.274-0.39,0.274   c-0.109,0.076-0.219,0.152-0.336,0.24c-0.079,0.06-0.398,0.319-0.398,0.319c-0.103,0.081-0.205,0.162-0.307,0.249   c-0.08,0.069-0.402,0.368-0.402,0.368c-0.104,0.093-0.206,0.187-0.294,0.275c-0.082,0.08-0.162,0.165-0.241,0.25   c0,0-0.292,0.308-0.359,0.381c-0.521,0.498-2.354,2.479-4.106,7.17l-0.091,0.243c0.138,0.036,0.276,0.073,0.415,0.106   C45.75,122.074,46.266,122.19,46.785,122.301z" opacity="0.05"/><polygon fill="#E9EAEC" points="44.283,99.536 43.533,102.453 46.094,109.244 45.462,99.703  "/><polygon fill="#E9EAEC" points="22.664,99.703 22.033,109.244 24.594,102.453 23.844,99.536  "/><path d="M22.664,99.89l-0.631,9.354l1.84-2.031c0.531-0.587,1.453-0.587,1.985-0.001l0.445,0.49L24.24,99.89H22.664z   " opacity="0.1"/><path d="M45.653,98.723l-0.895-2.357c-0.128-0.285-0.623-0.49-0.668-0.306l-1.339,5.847   c-0.152,0.584-0.466,1.496-0.611,1.909c-0.05,0.143-0.11,0.285-0.177,0.42c-1.869,3.732-4.5,5.455-9.73,9l4.007,1.405l0.002-1.063   c3.073-1.796,6.949-4.972,7.601-8.714l0.533-3.875c0.032-0.235,0.234-0.411,0.471-0.411c0.265,0,0.479,0.217,0.476,0.483   l0.771,8.184l0.302-0.042l-0.407-9.134C45.948,99.605,45.835,99.151,45.653,98.723z" fill="#FFFFFF"/><path d="M45.971,107.936l0.123,1.308l0.302-0.042l-0.068-1.523C46.207,107.763,46.093,107.856,45.971,107.936z" fill="#FFFFFF"/><path d="M34.219,118.052c-0.029-0.014-0.06-0.027-0.089-0.041C34.159,118.026,34.19,118.038,34.219,118.052z" fill="#FFFFFF"/><polygon fill="#FFFFFF" points="32.074,116.946 32.079,116.948 32.074,116.946  "/><path d="M36.241,113.578l-4.167-3.17v6.538c0.001,0.001,0.003,0.001,0.004,0.002c0.676,0.37,1.36,0.725,2.052,1.064   c0.029,0.014,0.06,0.027,0.089,0.041c0.667,0.325,1.34,0.637,2.022,0.93V113.578z" fill="#FFFFFF"/><circle cx="34.158" cy="116.094" fill="#D1C4BC" r="1"/><path d="M35.053,113.133l-2.09-0.782l-3.847-1.44c-2.833-1.292-4.468-3.398-4.832-6.047c0,0-0.292-2.122-0.26-1.887   l0.26,3.887c0.182,1.324,0.682,2.513,1.49,3.532c1.266,1.596,3.211,2.502,5.239,2.692l3.061,0.489   c0.877,0.166,1.878,0.556,2.04,1.491l0.127,0.571v-0.794C36.241,114.083,35.768,113.4,35.053,113.133z" opacity="0.1"/><path d="M35.526,112.873c-4.252-2.934-8.3-5.92-9.525-8.967c0,0-0.445-1.289-0.646-2.062l-1.333-5.851   c-0.045-0.184-0.517,0.013-0.651,0.371l-0.897,2.358c-0.182,0.429-0.295,0.883-0.336,1.346l-0.407,9.134l0.302,0.042l0.771-8.184   c-0.004-0.265,0.21-0.483,0.476-0.483c0.238,0,0.439,0.175,0.471,0.411l0.533,3.875c0.365,2.649,1.999,4.755,4.832,6.047   l5.042,1.859c0.783,0.293,1.651,0.776,1.805,1.615l0.038,0.172h0l0.241,1.083v-0.902v0c0-0.031-0.007-0.061-0.01-0.092   C36.181,113.983,35.999,113.339,35.526,112.873z" fill="#FFFFFF"/><path d="M46.128,103.189L46.128,103.189C46.116,103.183,46.112,103.182,46.128,103.189z" opacity="0.1"/><path d="M46.128,103.189C46.112,103.182,46.116,103.183,46.128,103.189l-0.139-3.12   c-0.041-0.464-0.154-0.918-0.336-1.346l-0.895-2.357c-0.123-0.272-0.57-0.462-0.65-0.318l0.667-2.977   c-2.742,2.453-5.327,4.698-5.327,4.698s-0.288,0.272-0.872,0.626c-1.241,0.752-2.677,1.118-4.128,1.118h-0.803   c-1.451,0-2.887-0.366-4.128-1.118c-0.584-0.354-0.872-0.626-0.872-0.626s-2.54-2.206-5.255-4.634   c0.162,1.001,0.462,1.974,0.913,2.882c0.687,1.383,1.931,3.356,4.061,5.293c3.318,3.016,7.281,6.459,7.281,6.459   s0.288,0.272,0.872,0.626c1.241,0.752,2.677,1.118,4.128,1.118h0.803c1.451,0,2.887-0.366,4.128-1.118   c0.584-0.354,0.872-0.626,0.872-0.626s1.51-1.312,3.444-3.024C48.473,104.161,46.281,103.252,46.128,103.189   C46.116,103.183,46.112,103.182,46.128,103.189z" opacity="0.1"/><path d="M45.988,108.126l0.105,1.118l0.302-0.042l-0.06-1.338C46.261,107.927,46.15,108.013,45.988,108.126z" opacity="0.1"/><path d="M11.755,60.519c-2.641,0.707-1.734,5.498-1.734,5.498s0.633,5.863,2.345,9.024   c1.577,2.912,2.562,2.679,2.911,2.608c0.668-0.135,0.929-1.101,0.929-1.101l-1.239-14.61   C14.199,61.133,12.532,60.311,11.755,60.519z" fill="#906D52"/><path d="M49.49,42.691c-2.32-3.182-7.179-3.797-10.563-4.616c-1.597-0.387-3.237-0.563-4.881-0.563   c-1.643,0-3.283,0.176-4.881,0.563c-3.384,0.819-7.243,3.434-9.563,6.616c-4.096,5.618-4.766,9.838-4.697,17.191   c-0.791-0.786-2.392-1.566-3.15-1.363c-2.641,0.707-1.734,5.498-1.734,5.498s0.633,5.863,2.345,9.024   c1.577,2.912,2.562,2.679,2.911,2.608c0.093-0.019,0.176-0.056,0.254-0.103c0.013,0.197,0.021,0.318,0.021,0.318l0.833,5.242   c0.161,1.011,0.463,1.994,0.918,2.91c0.687,1.383,1.931,3.356,4.061,5.293c3.318,3.016,7.281,6.459,7.281,6.459   s0.288,0.272,0.872,0.626c1.241,0.752,2.677,1.118,4.128,1.118h0.803c1.451,0,2.887-0.366,4.128-1.118   c0.584-0.354,0.872-0.626,0.872-0.626s3.963-3.442,7.281-6.459c2.131-1.937,3.374-3.91,4.061-5.293   c0.456-0.917,0.758-1.899,0.918-2.91l0.833-5.242c0,0,0.573-8.565,0.646-15.912C53.261,54.555,53.601,48.327,49.49,42.691z" fill="#906D52"/><path d="M34.05,24.16c-6.448,0-14.395,1.497-19.544,7.747C10.164,37.177,8,46.348,7.445,53.781   c-0.278,3.726-1.144,12.204,3.637,20.348c0.006,0.02,0.609-0.489,1.125-2.482l0.825,5.26c0.009,0.385,0.021,0.762,0.064,1.119   c0.13,1.152,0.207,2.159,0.363,2.962c0.311,1.611,0.488,2.532,0.488,2.532s-0.044-0.939-0.121-2.581   C13.77,80.116,13.83,79.126,13.809,78c-0.01-0.562,0.068-1.164,0.1-1.794c0.038-0.631,0.07-1.292,0.187-1.972   c0.164-1.367,0.449-2.827,0.882-4.312c0.114-0.369,0.23-0.743,0.347-1.122c0.119-0.377,0.296-0.735,0.443-1.109   c0.283-0.755,0.669-1.473,1.051-2.207c0.825-1.427,1.801-2.821,2.998-4.044c1.183-1.231,2.493-2.381,3.941-3.344   c1.426-0.993,2.919-1.901,4.45-2.696c1.533-0.79,3.05-1.572,4.554-2.278c2.99-1.442,5.835-2.794,8.096-4.357   c1.149-0.739,2.109-1.594,2.92-2.377c0.378-0.428,0.747-0.811,1.042-1.206c0.276-0.416,0.552-0.774,0.754-1.133   c0.005-0.01,0.009-0.018,0.014-0.027c0.455-0.722,0.798-1.496,0.973-2.353c2.922,1.696,5.399,4.526,6.155,9.252   c0,0,0.219,4.203,0,7.706c-0.026,0.413-0.037,0.844-0.041,1.28c-0.056,0.453-0.115,0.908-0.187,1.367   c-0.14,0.989-0.285,1.994-0.479,2.989c-0.152,1.003-0.362,1.995-0.551,2.976c-0.209,0.979-0.416,1.942-0.615,2.875   c-0.204,0.938-0.401,1.845-0.587,2.704c-0.19,0.863-0.338,1.693-0.458,2.465c-0.108,0.776-0.203,1.488-0.208,2.132   c-0.049,0.637,0.013,1.199,0.044,1.653c0.027,0.455,0.144,0.804,0.179,1.041c0.049,0.236,0.075,0.362,0.075,0.362   s0-0.13,0.001-0.372c0.011-0.243-0.019-0.593,0.024-1.037c0.046-0.445,0.083-0.977,0.21-1.581c0.092-0.605,0.283-1.277,0.461-2.01   c0.393-1.461,0.947-3.159,1.453-5.018c0.146-0.514,0.284-1.045,0.417-1.584c0.219-0.888,0.515-1.754,0.879-2.586l0.031-0.071   c0.336-0.768,0.818-1.466,1.459-1.965c0.437-0.341,0.877-0.542,1.305-0.425c2.614,0.713,1.716,5.547,1.716,5.547   s-0.141,1.309-0.463,3.023c1.169-3.07,2.422-6.725,3.115-9.356c4.021-15.255-4.403-27.288-4.403-27.288   C50.721,25.544,41.538,24.159,34.05,24.16z" fill="#24241F"/><path d="M34.05,24.16c-6.448,0-14.395,1.497-19.544,7.747C10.164,37.177,8,46.348,7.445,53.781   c-0.278,3.726-1.144,12.204,3.637,20.348c0.006,0.02,0.609-0.489,1.125-2.482l0.825,5.26c0.009,0.385,0.021,0.762,0.064,1.119   c0.13,1.152,0.207,2.159,0.363,2.962c0.311,1.611,0.488,2.532,0.488,2.532s-0.044-0.939-0.121-2.581   C13.77,80.116,13.83,79.126,13.809,78c-0.01-0.562,0.068-1.164,0.1-1.794c0.038-0.631,0.07-1.292,0.187-1.972   c0.164-1.367,0.449-2.827,0.882-4.312c0.114-0.369,0.23-0.743,0.347-1.122c0.119-0.377,0.296-0.735,0.443-1.109   c0.283-0.755,0.669-1.473,1.051-2.207c0.825-1.427,1.801-2.821,2.998-4.044c1.183-1.231,2.493-2.381,3.941-3.344   c1.426-0.993,2.919-1.901,4.45-2.696c1.533-0.79,3.05-1.572,4.554-2.278c2.99-1.442,5.835-2.794,8.096-4.357   c1.149-0.739,2.109-1.594,2.92-2.377c0.378-0.428,0.747-0.811,1.042-1.206c0.276-0.416,0.552-0.774,0.754-1.133   c0.005-0.01,0.009-0.018,0.014-0.027c0.455-0.722,0.798-1.496,0.973-2.353c2.922,1.696,5.399,4.526,6.155,9.252   c0,0,0.219,4.203,0,7.706c-0.026,0.413-0.037,0.844-0.041,1.28c-0.056,0.453-0.115,0.908-0.187,1.367   c-0.14,0.989-0.285,1.994-0.479,2.989c-0.152,1.003-0.362,1.995-0.551,2.976c-0.209,0.979-0.416,1.942-0.615,2.875   c-0.204,0.938-0.401,1.845-0.587,2.704c-0.19,0.863-0.338,1.693-0.458,2.465c-0.108,0.776-0.203,1.488-0.208,2.132   c-0.049,0.637,0.013,1.199,0.044,1.653c0.027,0.455,0.144,0.804,0.179,1.041c0.049,0.236,0.075,0.362,0.075,0.362   s0-0.13,0.001-0.372c0.011-0.243-0.019-0.593,0.024-1.037c0.046-0.445,0.083-0.977,0.21-1.581c0.092-0.605,0.283-1.277,0.461-2.01   c0.393-1.461,0.947-3.159,1.453-5.018c0.146-0.514,0.284-1.045,0.417-1.584c0.219-0.888,0.515-1.754,0.879-2.586l0.031-0.071   c0.336-0.768,0.818-1.466,1.459-1.965c0.437-0.341,0.877-0.542,1.305-0.425c2.614,0.713,1.716,5.547,1.716,5.547   s-0.141,1.309-0.463,3.023c1.169-3.07,2.422-6.725,3.115-9.356c4.021-15.255-4.403-27.288-4.403-27.288   C50.721,25.544,41.538,24.159,34.05,24.16z" fill="#332F2A"/><path d="M49.889,80.096c-0.001,0.243-0.001,0.372-0.001,0.372c0.009,0.058,0.005-0.106,0.001-0.414   C49.889,80.067,49.89,80.085,49.889,80.096z" opacity="0.05"/><path d="M46.561,41.668c-0.036,0.176-0.081,0.347-0.132,0.515c0,0,0,0,0,0c-0.192,0.655-0.479,1.264-0.841,1.838   c-0.005,0.01-0.009,0.018-0.014,0.027c-0.202,0.359-0.478,0.717-0.754,1.133c-0.296,0.396-0.664,0.779-1.042,1.206   c-0.81,0.783-1.771,1.637-2.92,2.377c-2.261,1.562-5.106,2.915-8.096,4.357c-1.504,0.706-3.021,1.487-4.554,2.278   c-1.532,0.794-3.024,1.702-4.45,2.696c-1.448,0.964-2.758,2.113-3.941,3.344c-1.197,1.223-2.172,2.618-2.998,4.044   c-0.382,0.734-0.768,1.451-1.051,2.207c-0.147,0.374-0.324,0.732-0.443,1.109c-0.117,0.379-0.233,0.753-0.347,1.122   c-0.433,1.486-0.718,2.945-0.882,4.312c-0.116,0.68-0.148,1.342-0.187,1.972c-0.004,0.076-0.011,0.147-0.016,0.221l0.075,0.479   c0.003,0.118,0.015,0.226,0.02,0.342c0.304,0.252,0.562,0.369,0.77,0.413c0.015-0.465,0.061-0.948,0.087-1.455   c0.038-0.631,0.07-1.292,0.187-1.972c0.164-1.367,0.449-2.827,0.882-4.312c0.114-0.369,0.23-0.743,0.347-1.122   c0.119-0.377,0.296-0.735,0.443-1.109c0.283-0.755,0.669-1.473,1.051-2.207c0.825-1.427,1.801-2.821,2.998-4.044   c1.183-1.231,2.493-2.381,3.941-3.344c1.426-0.993,2.919-1.901,4.45-2.696c1.533-0.79,3.05-1.572,4.554-2.278   c2.99-1.442,5.835-2.794,8.096-4.357c1.149-0.739,2.109-1.594,2.92-2.377c0.378-0.428,0.747-0.811,1.042-1.206   c0.276-0.416,0.552-0.774,0.754-1.133c0.005-0.01,0.009-0.018,0.014-0.027c0.144-0.228,0.272-0.464,0.39-0.704   c1.895,1.724,3.377,4.148,3.93,7.603c0,0,0.219,4.203,0,7.706c-0.026,0.413-0.037,0.844-0.041,1.28   c-0.056,0.453-0.115,0.908-0.187,1.367c-0.14,0.989-0.285,1.994-0.479,2.989c-0.065,0.428-0.904,7.296-0.547,13.241   c0.002-0.032-0.002-0.058,0.001-0.09c0.005-0.644,0.1-1.356,0.208-2.132c0.12-0.772,0.267-1.602,0.458-2.465   c0.187-0.86,0.384-1.766,0.587-2.704c0.199-0.932,0.406-1.896,0.615-2.875c0.089-0.462,0.183-0.928,0.273-1.395   c0.008-0.084,0.018-0.15,0.032-0.175c0.089-0.466,0.174-0.934,0.246-1.405c0.194-0.995,0.338-1.999,0.479-2.989   c0.072-0.458,0.131-0.914,0.187-1.367c0.004-0.436,0.015-0.867,0.041-1.28c0.219-3.503,0-7.706,0-7.706   C51.961,46.194,49.483,43.364,46.561,41.668z" opacity="0.07"/><path d="M34.05,24.16c-0.281,0-0.568,0.007-0.854,0.013c7.287,0.132,15.893,1.827,21.027,11.57   c0,0,8.424,12.033,4.403,27.288c-0.222,0.843-0.506,1.797-0.822,2.797c0.398,1.602,0.042,3.536,0.042,3.536   s-0.141,1.309-0.463,3.023c1.169-3.07,2.422-6.725,3.115-9.356c4.021-15.255-4.403-27.288-4.403-27.288   C50.721,25.544,41.538,24.159,34.05,24.16z" opacity="0.2"/><path d="M14.506,31.906C10.164,37.177,8,46.348,7.445,53.781c-0.278,3.726-1.144,12.204,3.637,20.348   c0.005,0.017,0.463-0.368,0.923-1.784c-3.7-7.57-2.945-15.109-2.688-18.563c0.555-7.433,2.719-16.605,7.061-21.875   c4.925-5.978,12.406-7.603,18.69-7.734c-0.341-0.006-0.683-0.013-1.018-0.013C27.602,24.16,19.655,25.656,14.506,31.906z" fill="#F9FBFC" opacity="0.1"/><path d="M20.182,107.854c-0.047-0.047-0.09-0.096-0.137-0.143C20.092,107.758,20.136,107.808,20.182,107.854z" fill="#24241F"/><path d="M17.93,105.488c-0.722-0.801-1.423-1.62-2.103-2.458C16.506,103.868,17.207,104.688,17.93,105.488z" fill="#24241F"/><path d="M25.377,101.422c-0.01-0.094-0.022-0.188-0.044-0.282l-1.619-7.715c-0.78-0.696-1.582-1.416-2.35-2.114   c-0.614-0.558-1.146-1.117-1.62-1.666c-0.021,5.78-1.896,10.172-3.965,13.33c0.016,0.019,0.032,0.037,0.048,0.056   c0.68,0.838,1.381,1.657,2.103,2.458c0.686,0.76,1.394,1.499,2.116,2.224c0.047,0.047,0.09,0.096,0.137,0.143   c1.549,1.543,3.179,3.006,4.882,4.382C25.268,109.011,25.377,105.414,25.377,101.422z" fill="#2C2B29"/><path d="M25.052,112.226L25.052,112.226c-0.14-0.113-0.274-0.232-0.413-0.346   C24.778,111.994,24.912,112.113,25.052,112.226z" opacity="0.05"/><path d="M16.812,104.182L16.812,104.182c-0.151-0.178-0.306-0.353-0.455-0.532   C16.51,103.826,16.661,104.004,16.812,104.182z" fill="#F9FBFC" opacity="0.1"/><path d="M21.364,91.31c-0.614-0.558-1.146-1.117-1.62-1.666c-0.021,5.78-1.896,10.172-3.965,13.33   c0.187,0.231,0.383,0.452,0.578,0.676c0.149,0.179,0.304,0.354,0.455,0.532c2.146-2.898,4.322-7.079,4.736-12.705   C21.487,91.422,21.425,91.365,21.364,91.31z" fill="#F9FBFC" opacity="0.1"/><path d="M56.889,60.519c-1.283-0.404-3.683,1.269-4.451,2.074v13.955c0,0,0.261,0.966,0.929,1.101   c0.349,0.071,1.334,0.303,2.911-2.608c1.712-3.161,2.345-9.024,2.345-9.024S59.497,61.341,56.889,60.519z" fill="#906D52"/><path d="M52.675,59.906c-0.056,0.453-0.115,0.908-0.187,1.367c-0.14,0.989-0.285,1.994-0.479,2.989   c-0.152,1.003-0.362,1.995-0.551,2.976c-0.209,0.979-0.416,1.942-0.615,2.875c-0.204,0.938-0.401,1.845-0.587,2.704   c-0.19,0.863-0.338,1.693-0.458,2.465c-0.108,0.776-0.203,1.488-0.208,2.132c-0.049,0.637,0.013,1.199,0.044,1.653   c0.027,0.455,0.144,0.804,0.179,1.041c0.049,0.236,0.075,0.362,0.075,0.362s0-0.13,0.001-0.372   c0.011-0.243-0.019-0.593,0.024-1.037c0.046-0.445,0.083-0.977,0.21-1.581c0.092-0.605,0.283-1.277,0.461-2.01   c0.393-1.461,0.947-3.159,1.453-5.018c0.146-0.514,0.284-1.045,0.417-1.584c0.219-0.888,1.476-5.92,1.476-5.92   c0.298-0.978,0.713-1.77,1.423-2.165c0.583-0.324,1.44-0.281,1.856-0.128l0.946,0.034l0.281-2.061h-5.722   C52.69,59.039,52.679,59.47,52.675,59.906z" fill="#332F2A"/><path d="M95.592,117.121c-0.247,0.133-0.496,0.263-0.745,0.391C95.096,117.384,95.345,117.253,95.592,117.121z" fill="#836755"/><path d="M93.016,118.406c-0.2,0.093-0.399,0.187-0.6,0.277C92.617,118.594,92.816,118.499,93.016,118.406z" fill="#836755"/><path d="M100.317,114.223c-0.226,0.158-0.458,0.305-0.686,0.458C99.859,114.527,100.091,114.381,100.317,114.223z" fill="#836755"/><path d="M98.012,115.732c-0.257,0.158-0.518,0.309-0.778,0.462C97.494,116.041,97.755,115.89,98.012,115.732z" fill="#836755"/><polygon fill="#836755" points="81.582,122.222 81.582,122.222 81.582,122.222  "/><path d="M90.134,119.64c-0.068,0.027-0.136,0.056-0.204,0.083C89.998,119.696,90.065,119.667,90.134,119.64z" fill="#836755"/><path d="M107.447,101.957c-0.773-0.324-1.263-1.096-1.225-1.933l0.432-9.769l-0.178-2.401h-24.54l-0.178,2.401   l0.432,9.769c0.037,0.838-0.452,1.609-1.225,1.933c0,0,0.618,18.265,0.618,18.265c2.875-0.638,24.42-10.561,26.032-12.157   C107.678,104.47,107.447,101.957,107.447,101.957z" fill="#906D52"/><path d="M107.318,108.343c-0.129,0.126-0.264,0.245-0.395,0.37C107.053,108.588,107.189,108.469,107.318,108.343z" fill="#F6F7F8"/><path d="M105.007,110.497c-0.81,0.715-1.637,1.413-2.484,2.086C103.371,111.91,104.198,111.213,105.007,110.497z" fill="#F6F7F8"/><polygon fill="#F6F7F8" points="111.603,103.697 111.602,103.698 111.603,103.697  "/><path d="M102.523,112.583c3.329-2.643,6.372-5.611,9.094-8.874l-3.666-1.6c-3.918,4.039-15.654,9.674-27.471,0.064   l-22.783,9.54c0,0-0.047,0.008-0.114,0.021c-0.07,0.014-0.163,0.032-0.296,0.064c-0.028,0.007-0.065,0.016-0.096,0.024   c-0.065,0.016-0.128,0.031-0.203,0.051c-0.034,0.009-0.076,0.022-0.113,0.032c-0.081,0.022-0.161,0.044-0.251,0.071   c-0.056,0.017-0.122,0.038-0.182,0.057c-0.081,0.025-0.158,0.048-0.244,0.077c-0.061,0.02-0.129,0.046-0.193,0.068   c-0.093,0.033-0.184,0.063-0.283,0.1c-0.083,0.031-0.173,0.068-0.26,0.103c-0.087,0.034-0.17,0.065-0.26,0.103   c-0.093,0.039-0.191,0.084-0.287,0.127c-0.089,0.04-0.176,0.076-0.268,0.119c-0.094,0.044-0.192,0.095-0.288,0.143   c-0.098,0.049-0.195,0.094-0.295,0.147c-0.09,0.047-0.183,0.102-0.275,0.153c-0.109,0.061-0.217,0.118-0.328,0.183   c-0.092,0.054-0.185,0.116-0.277,0.174c-0.112,0.07-0.224,0.137-0.336,0.212c-0.093,0.062-0.187,0.133-0.28,0.199   c-0.112,0.079-0.225,0.155-0.337,0.24c-0.094,0.071-0.187,0.151-0.281,0.226c-0.111,0.089-0.222,0.174-0.332,0.269   c-0.093,0.08-0.183,0.169-0.275,0.253c-0.109,0.1-0.219,0.196-0.327,0.302c-0.089,0.088-0.175,0.186-0.263,0.278   c-0.103,0.109-0.208,0.213-0.308,0.328c0,0-1.832,1.57-3.661,6.466c5.467,1.18,11.24,1.7,17.215,1.7   C78.558,124,91.944,120.983,102.523,112.583z" fill="#F6F7F8"/><polygon fill="#6D4B4C" points="97.545,116.009 97.545,116.009 97.544,116.01  "/><path d="M99.078,106.276c-1.545,0.148-3.103-0.893-4.676-0.887c-0.062,0-0.125,0.01-0.187,0.013   c-0.062-0.003-0.125-0.013-0.187-0.013c-1.573-0.006-3.131,1.035-4.676,0.887l1.78,8.061l-0.771,5.211   c2.49-0.988,4.888-2.162,7.183-3.539c0,0,0.001,0,0.001-0.001l-0.247-1.672L99.078,106.276z" fill="#7C4C4C"/><path d="M94.402,105.389c-0.062,0-0.125,0.01-0.187,0.013c-0.062-0.003-0.125-0.013-0.187-0.013   c-1.573-0.006-3.131,1.035-4.676,0.887l1.78,8.061c0,0,0.943-0.859,3.083-0.962c2.14,0.103,3.083,0.963,3.083,0.963l1.78-8.061   C97.533,106.424,95.975,105.383,94.402,105.389z" opacity="0.15"/><path d="M82.031,96.438c-0.347,0-0.44,0.279-0.504,0.516l-1.081,5.221c1.842,5.624,7.845,12.297,9.355,13.916   c0.156,0.167,0.436,0.098,0.507-0.119c2.336-7.173,2.287-9.721,3.907-10.582C94.215,105.389,82.152,99.406,82.031,96.438z" opacity="0.1"/><path d="M82.031,96.438c-0.347,0-0.44,0.279-0.504,0.516l-1.081,5.221c2.811,6.158,7.83,11.029,9.179,12.271   c0.16,0.147,0.421,0.069,0.489-0.137c2.356-7.137,2.479-8.056,4.101-8.919C94.215,105.389,82.152,99.406,82.031,96.438z" fill="#ECECEE"/><polygon opacity="0.1" points="98.04,115.715 98.04,115.715 98.04,115.715  "/><polygon opacity="0.1" points="100.257,114.263 100.257,114.263 100.256,114.263  "/><path d="M106.884,96.953c-0.063-0.236-0.156-0.516-0.504-0.516c-0.121,2.969-12.184,8.952-12.184,8.952   c1.6,0.851,1.594,3.355,3.844,10.326c0,0,0,0,0,0c0.75-0.462,1.489-0.944,2.215-1.452c0,0,0.001,0,0.001-0.001   c2.394-2.783,6.286-7.744,7.708-12.089L106.884,96.953z" opacity="0.1"/><path d="M106.884,96.953c-0.063-0.236-0.156-0.516-0.504-0.516c-0.121,2.969-12.184,8.952-12.184,8.952   c1.623,0.863,1.746,1.782,4.101,8.919c0.068,0.207,0.329,0.285,0.489,0.137c1.349-1.242,6.367-6.113,9.179-12.271L106.884,96.953z" fill="#ECECEE"/><path d="M119.889,57.034c-0.237-0.073-0.48-0.102-0.727-0.111l0.523-2.28C119.686,30.683,99.487,29,98.493,29   h-2.164h-2.114h-2.114h-2.164c-0.994,0-21.193,1.683-21.192,25.643l0.523,2.28c-0.246,0.009-0.49,0.038-0.727,0.111   c-2.564,0.788-3.452,5.649-2.05,10.206c1.307,4.253,4.146,6.735,6.603,6.408l1.447,10.867c0.043,0.323,0.1,0.648,0.197,0.959   c1.223,3.919,5.097,6.146,6.709,7.774C88.438,100.314,90.21,99,92.412,99h1.803h1.803c2.202,0,3.974,1.314,10.966-5.752   c1.611-1.628,5.486-3.855,6.709-7.774c0.097-0.311,0.154-0.636,0.197-0.959l1.447-10.867c2.456,0.327,5.295-2.155,6.603-6.408   C123.341,62.683,122.453,57.822,119.889,57.034z" fill="#906D52"/><polygon opacity="0.1" points="106.975,108.665 106.975,108.664 106.975,108.665  "/><path d="M109.356,106.244c0,0-0.001,0.001-0.001,0.001C109.355,106.245,109.356,106.244,109.356,106.244z" opacity="0.1"/><path d="M109.356,106.244c0.771-0.828,1.52-1.677,2.246-2.547l-3.651-1.588l-1.068-5.156   c-0.063-0.236-0.156-0.516-0.504-0.516l0.12-2.714C99.92,100.229,98.167,99,96.018,99h-1.803h-1.803   c-2.151,0-3.905,1.232-10.502-5.296l0.112,2.541c1.454,3.445,4.921,5.484,6.423,7.003C95.438,110.314,97.21,109,99.412,109h1.803   h1.803c1.16,0,2.206,0.357,3.957-0.335l0,0c0.815-0.785,1.609-1.591,2.38-2.419C109.355,106.245,109.356,106.244,109.356,106.244z" opacity="0.1"/><path d="M108.048,26.493c-4.44-2.295-12.589-2.655-13.801-2.697c-0.026-0.001-0.04-0.001-0.066,0   c-1.212,0.042-9.361,0.402-13.801,2.697C74.563,29.5,65.748,38.156,69.028,57.016l0.574-0.125l1.613,7.175   c0.112,0.5,0.557,0.856,1.07,0.856c0.609,0,1.102-0.497,1.096-1.106l-0.097-11.094c-0.001-0.097-0.016-0.194-0.041-0.288   c-0.267-0.989-1.542-7.122,6.252-11.935c3.087-1.906,8.792-3.145,14.72-3.151c5.927,0.006,11.633,1.246,14.72,3.151   c7.794,4.812,6.519,10.946,6.252,11.935c-0.025,0.094-0.041,0.19-0.042,0.288l-0.097,11.094c-0.005,0.609,0.487,1.106,1.096,1.106   c0.513,0,0.957-0.356,1.07-0.856l1.613-7.175l0.574,0.125C122.681,38.156,113.866,29.5,108.048,26.493z" fill="#332F2A"/><path d="M108.048,26.493c-4.483-2.317-12.746-2.662-13.834-2.698c-0.169,0.006-0.526,0.02-1,0.047   c2.578,0.145,9.047,0.694,12.834,2.651c5.818,3.007,14.633,11.663,11.353,30.523l-1.374,7.906h0.994l1.806-8.031l0.574,0.125   C122.681,38.156,113.866,29.5,108.048,26.493z" opacity="0.2"/><path d="M93.416,23.83c-2.438,0.129-9.154,0.657-13.035,2.663   C74.563,29.5,65.748,38.156,69.028,57.016l0.574-0.125l1.806,8.031h0.744h0.292l-1.416-7.906   c-3.28-18.86,5.535-27.516,11.353-30.523c3.787-1.957,10.256-2.506,12.834-2.651c-0.082-0.005-0.161-0.009-0.235-0.013   C94.455,23.802,93.94,23.802,93.416,23.83z" fill="#F9FBFC" opacity="0.1"/></g></svg>