<!--?xml version="1.0" standalone="no"?-->

<svg version="1.0" xmlns="http://www.w3.org/2000/svg" width="300.000000pt" height="282.000000pt" viewBox="0 0 300.000000 282.000000" preserveAspectRatio="xMidYMid meet">
<g transform="translate(0.000000,282.000000) scale(0.100000,-0.100000)" fill="#0B0B0B" stroke="none">

<path class="node" id="node2" d="M450 2173 c-69 -63 -128 -121 -132 -127 -7 -12 -31 -249 -49 -476 -4
-63 -13 -164 -19 -225 -5 -60 -15 -171 -20 -245 -6 -74 -15 -154 -20 -178 -6
-23 -10 -61 -10 -84 0 -44 12 -58 180 -228 l55 -55 247 3 246 3 136 126 136
125 0 55 c0 53 11 194 30 392 5 52 6 100 2 106 -4 7 -54 63 -111 124 l-103
111 -184 0 c-118 0 -185 4 -189 11 -10 15 15 292 28 307 13 16 234 16 244 -1
3 -6 5 -35 4 -64 l-2 -53 178 2 178 3 7 70 c3 39 9 93 12 120 5 49 5 51 -42
100 -26 28 -76 83 -111 123 l-63 72 -252 -1 -251 0 -125 -116z m405 -1058 c-4
-68 -10 -139 -14 -157 l-7 -33 -128 -3 -129 -3 7 73 c4 40 9 107 12 148 3 41
7 81 9 88 3 9 38 12 131 12 l126 0 -7 -125z"></path>

<path class="node" id="node4" d="M2015 2232 c-34 -31 -96 -89 -138 -128 l-77 -72 -1 -58 c0 -33 -8
-156 -17 -274 l-18 -215 41 -45 c22 -25 71 -79 109 -120 l69 -75 191 -5 c183
-5 191 -6 189 -25 -1 -11 -7 -72 -13 -135 -16 -178 0 -160 -145 -160 l-125 0
0 65 0 65 -177 -2 -178 -3 -11 -120 -11 -120 33 -40 c18 -22 68 -77 111 -122
l78 -83 250 -1 250 -2 133 122 c90 84 132 130 132 144 0 12 7 87 16 167 8 80
19 199 24 265 5 66 14 170 19 230 5 61 15 169 21 240 6 72 15 155 20 186 19
109 16 126 -42 188 -29 31 -80 87 -113 124 l-60 67 -250 0 -250 0 -60 -58z
m399 -367 c-2 -112 -17 -250 -28 -257 -6 -4 -64 -8 -130 -8 l-119 0 8 118 c10
172 15 195 45 203 14 4 70 7 125 6 l100 -2 -1 -60z"></path>
</g>
<g transform="translate(0.000000,282.000000) scale(0.100000,-0.100000)" fill="#9F9F9F" stroke="none">





</g>
</svg>